<?xml version="1.0" encoding="utf-8"?>
<!-- Generator: Adobe Illustrator 15.0.0, SVG Export Plug-In . SVG Version: 6.00 Build 0)  -->
<!DOCTYPE svg PUBLIC "-//W3C//DTD SVG 1.1//EN" "http://www.w3.org/Graphics/SVG/1.1/DTD/svg11.dtd">
<svg version="1.1" id="Слой_1" xmlns="http://www.w3.org/2000/svg" xmlns:xlink="http://www.w3.org/1999/xlink" x="0px" y="0px"
	 width="349.334px" height="132px" viewBox="0 0 349.334 132" enable-background="new 0 0 349.334 132" xml:space="preserve">
<g id="Слой_1_1_">
	<g>
		<g>
			<g id="Node_1_">
				<g>
					<path fill="#342E8A" d="M108.796,93.868c-2.571,0-4.962,0.747-7.036,1.974L78.953,73.027c1.222-2.066,1.973-4.447,1.973-7.026
						c0-4.893-2.543-9.19-6.372-11.676l5.433-16.288c0.313,0.021,0.616,0.096,0.938,0.096c7.686,0,13.935-6.253,13.935-13.936
						c0-7.684-6.25-13.934-13.935-13.934c-7.686,0-13.935,6.25-13.935,13.934c0,4.896,2.547,9.187,6.372,11.678l-5.431,16.289
						c-0.313-0.021-0.618-0.098-0.939-0.098c-7.687,0-13.934,6.248-13.934,13.935c0,1.604,0.328,3.117,0.825,4.552L36.414,82.2
						c-2.54-3.472-6.608-5.749-11.227-5.749c-7.685,0-13.934,6.253-13.934,13.936c0,7.682,6.25,13.934,13.934,13.934
						c7.686,0,13.936-6.252,13.936-13.934c0-0.518-0.099-1.01-0.153-1.519l18.782-12.526c2.465,2.213,5.681,3.594,9.238,3.594
						c2.571,0,4.961-0.75,7.034-1.976l22.809,22.813c-1.222,2.067-1.975,4.455-1.975,7.029c0,7.68,6.25,13.934,13.937,13.934
						c7.684,0,13.933-6.254,13.933-13.934C122.728,100.121,116.479,93.868,108.796,93.868z M25.189,97.352
						c-3.843,0-6.967-3.123-6.967-6.968c0-3.844,3.125-6.967,6.967-6.967s6.967,3.123,6.967,6.967
						C32.155,94.229,29.03,97.352,25.189,97.352z M66.992,72.966c-3.844,0-6.968-3.122-6.968-6.967c0-3.846,3.124-6.968,6.968-6.968
						c3.846,0,6.968,3.122,6.968,6.968C73.96,69.844,70.838,72.966,66.992,72.966z M73.96,24.196c0-3.847,3.124-6.967,6.966-6.967
						c3.847,0,6.968,3.12,6.968,6.967c0,3.844-3.122,6.968-6.968,6.968C77.084,31.164,73.96,28.04,73.96,24.196z M108.796,114.77
						c-3.849,0-6.967-3.125-6.967-6.967c0-3.845,3.118-6.969,6.967-6.969c3.842,0,6.966,3.124,6.966,6.969
						C115.761,111.645,112.637,114.77,108.796,114.77z"/>
				</g>
			</g>
		</g>
		<g>
			<path fill="#342E8A" d="M139.303,57.75v17.041c0,2.199-0.58,4.08-1.74,5.639c-1.16,1.561-2.721,2.73-4.68,3.51
				c-1.961,0.781-3.921,1.332-5.88,1.65c-1.961,0.32-4.041,0.48-6.24,0.48c-2.08,0-4.03-0.131-5.85-0.391l-1.82-1.47l-2.92-3.479
				l-5.83-5.939l-6-6.455l3-9.586l3.35-8.28l2.24-1.48c0,0,2.79-1.448,4.59-1.949c1.8-0.5,3.399-0.811,4.8-0.931
				s2.882-0.18,4.44-0.18c1.6,0,3.109,0.06,4.53,0.18c1.419,0.12,3.028,0.431,4.83,0.931c1.8,0.501,3.339,1.149,4.619,1.949
				c1.279,0.802,2.359,1.95,3.239,3.45S139.303,55.71,139.303,57.75z M129.942,74.791V57.689c0-1.88-0.771-3.2-2.31-3.96
				c-1.54-0.759-3.812-1.14-6.812-1.14c-3.04,0-5.319,0.37-6.84,1.11s-2.278,2.069-2.278,3.989v17.102c0,1,0.259,1.83,0.778,2.49
				c0.521,0.66,1.271,1.129,2.25,1.408c0.979,0.281,1.92,0.471,2.82,0.569c0.9,0.103,2.01,0.15,3.33,0.15s2.43-0.05,3.33-0.15
				c0.898-0.1,1.83-0.288,2.79-0.569c0.96-0.279,1.688-0.748,2.188-1.408S129.942,75.791,129.942,74.791z"/>
			<path fill="#342E8A" d="M181.544,85.471h-10.86l-8.881-13.801l-8.939,13.801h-10.8l14.34-19.86l-13.739-19.08h10.8l8.34,12.96
				l8.28-12.96h10.799l-13.739,19.08L181.544,85.471z"/>
			<path fill="#342E8A" d="M220.243,46.529L206.023,69.75v15.721h-9.359v-15.6l-14.102-23.342h10.619l8.221,15.24l8.16-15.24
				H220.243z"/>
			<path fill="#342E8A" d="M257.263,83.551c-2,0.719-4.551,1.32-7.65,1.799c-3.1,0.48-5.949,0.721-8.549,0.721
				c-2.16,0-4.109-0.09-5.852-0.27c-1.738-0.18-3.479-0.52-5.219-1.021c-1.74-0.498-3.201-1.147-4.381-1.948
				c-1.182-0.8-2.131-1.879-2.85-3.24c-0.721-1.358-1.08-2.959-1.08-4.799V58.59c0-2.04,0.42-3.84,1.26-5.4
				c0.84-1.56,1.898-2.779,3.18-3.66c1.279-0.879,2.82-1.609,4.619-2.189c1.801-0.58,3.529-0.96,5.191-1.14
				c1.658-0.181,3.408-0.271,5.25-0.271c5.52,0,10.799,0.42,15.84,1.26v7.08c-4.762-1.119-10.041-1.68-15.84-1.68
				c-6.762,0-10.141,1.96-10.141,5.88v15.661c0,2,0.949,3.381,2.85,4.139c1.9,0.762,4.609,1.142,8.131,1.142
				c1.959,0,4.061-0.302,6.299-0.899v-9.06h-6.359V63.33h15.301V83.551z"/>
			<path fill="#342E8A" d="M295.12,85.471h-30.299V46.529h29.699v6.66h-20.34v8.94h18.359v6.661h-18.359v10.02h20.939V85.471z"/>
			<path fill="#342E8A" d="M338.081,85.471h-9.48l-18.84-27v27h-8.34V46.529h9.479l18.84,26.582V46.529h8.342V85.471z"/>
		</g>
	</g>
</g>
<g id="Слой_2" display="none">
	<polyline display="inline" fill="none" stroke="#000000" stroke-miterlimit="10" points="100.747,49.283 97.413,59.277 
		94.781,67.139 98.271,70.754 112.25,85.004 	"/>
</g>
</svg>
