<?xml version="1.0" encoding="utf-8"?>
<!-- Generator: Adobe Illustrator 15.0.0, SVG Export Plug-In . SVG Version: 6.00 Build 0)  -->
<!DOCTYPE svg PUBLIC "-//W3C//DTD SVG 1.1//EN" "http://www.w3.org/Graphics/SVG/1.1/DTD/svg11.dtd">
<svg version="1.1" id="Слой_1" xmlns="http://www.w3.org/2000/svg" xmlns:xlink="http://www.w3.org/1999/xlink" x="0px" y="0px"
	 width="400px" height="132px" viewBox="0 0 400 132" enable-background="new 0 0 400 132" xml:space="preserve">
<g>
	<g>
		<g id="Node_1_">
			<g>
				<path fill="none" stroke="#9485E9" stroke-miterlimit="10" d="M104.812,93.868c-2.571,0-4.962,0.747-7.036,1.974L74.969,73.028
					c1.222-2.068,1.973-4.449,1.973-7.028c0-4.892-2.543-9.191-6.372-11.676l5.433-16.288c0.313,0.022,0.616,0.096,0.938,0.096
					c7.686,0,13.935-6.253,13.935-13.935c0-7.684-6.25-13.934-13.935-13.934c-7.684,0-13.933,6.25-13.933,13.934
					c0,4.895,2.545,9.186,6.372,11.677l-5.431,16.289c-0.313-0.021-0.618-0.097-0.94-0.097c-7.686,0-13.933,6.248-13.933,13.934
					c0,1.603,0.328,3.117,0.825,4.551l-17.47,11.648c-2.54-3.47-6.608-5.749-11.225-5.749c-7.685,0-13.934,6.253-13.934,13.935
					s6.25,13.934,13.934,13.934s13.934-6.252,13.934-13.934c0-0.517-0.097-1.009-0.153-1.518l18.781-12.525
					c2.465,2.212,5.681,3.593,9.24,3.593c2.571,0,4.96-0.749,7.034-1.975l22.807,22.814c-1.22,2.068-1.973,4.455-1.973,7.028
					c0,7.681,6.25,13.934,13.935,13.934c7.684,0,13.933-6.253,13.933-13.934C118.745,100.121,112.496,93.868,104.812,93.868z
					 M21.207,97.351c-3.843,0-6.967-3.122-6.967-6.967c0-3.844,3.125-6.967,6.967-6.967c3.842,0,6.967,3.123,6.967,6.967
					C28.173,94.229,25.048,97.351,21.207,97.351z M63.009,72.966c-3.843,0-6.967-3.122-6.967-6.967s3.124-6.967,6.967-6.967
					c3.845,0,6.967,3.122,6.967,6.967S66.854,72.966,63.009,72.966z M69.976,24.197c0-3.847,3.124-6.967,6.966-6.967
					c3.847,0,6.968,3.12,6.968,6.967c0,3.843-3.122,6.967-6.968,6.967C73.1,31.164,69.976,28.04,69.976,24.197z M104.812,114.769
					c-3.847,0-6.967-3.124-6.967-6.967c0-3.844,3.12-6.968,6.967-6.968c3.842,0,6.966,3.124,6.966,6.968
					C111.778,111.645,108.654,114.769,104.812,114.769z"/>
			</g>
		</g>
	</g>
	<text transform="matrix(1 0 0 1 100.7705 87.7603)" fill="#9485E9" font-family="'Play-Bold'" font-size="72">OXYGEN</text>
</g>
</svg>
