<?xml version="1.0" encoding="utf-8"?>
<!-- Generator: Adobe Illustrator 15.0.0, SVG Export Plug-In . SVG Version: 6.00 Build 0)  -->
<!DOCTYPE svg PUBLIC "-//W3C//DTD SVG 1.1//EN" "http://www.w3.org/Graphics/SVG/1.1/DTD/svg11.dtd">
<svg version="1.1" id="Слой_1" xmlns="http://www.w3.org/2000/svg" xmlns:xlink="http://www.w3.org/1999/xlink" x="0px" y="0px"
	 width="290px" height="101.236px" viewBox="0 0 290 101.236" enable-background="new 0 0 290 101.236" xml:space="preserve">
<g>
	<g id="Слой_1_1_">
		<g>
			<g>
				<g id="Node_1_">
					<g>
						<path fill="#342E8A" d="M87.992,74.736c-2.226,0-4.294,0.646-6.09,1.708L62.165,56.7c1.058-1.789,1.707-3.85,1.707-6.081
							c0-4.234-2.2-7.954-5.515-10.104l4.702-14.097c0.271,0.019,0.533,0.083,0.812,0.083c6.651,0,12.06-5.412,12.06-12.061
							c0-6.649-5.409-12.059-12.06-12.059c-6.651,0-12.06,5.409-12.06,12.059c0,4.237,2.204,7.95,5.515,10.106l-4.699,14.097
							c-0.271-0.018-0.535-0.084-0.813-0.084c-6.652,0-12.059,5.407-12.059,12.06c0,1.389,0.284,2.698,0.714,3.938L25.35,64.639
							c-2.198-3.005-5.719-4.976-9.716-4.976c-6.65,0-12.059,5.411-12.059,12.061c0,6.647,5.409,12.059,12.059,12.059
							c6.651,0,12.061-5.411,12.061-12.059c0-0.448-0.085-0.874-0.133-1.314l16.255-10.841c2.134,1.915,4.917,3.11,7.995,3.11
							c2.226,0,4.294-0.649,6.088-1.71l19.739,19.744c-1.057,1.789-1.709,3.855-1.709,6.083c0,6.646,5.409,12.059,12.062,12.059
							c6.649,0,12.058-5.412,12.058-12.059C100.05,80.147,94.642,74.736,87.992,74.736z M15.636,77.751
							c-3.325,0-6.029-2.703-6.029-6.03c0-3.326,2.704-6.029,6.029-6.029s6.029,2.703,6.029,6.029
							C21.664,75.048,18.96,77.751,15.636,77.751z M51.813,56.646c-3.326,0-6.03-2.702-6.03-6.029c0-3.328,2.704-6.03,6.03-6.03
							c3.328,0,6.03,2.702,6.03,6.03C57.844,53.944,55.142,56.646,51.813,56.646z M57.844,14.439c0-3.329,2.703-6.029,6.028-6.029
							c3.329,0,6.03,2.7,6.03,6.029c0,3.327-2.702,6.03-6.03,6.03C60.547,20.47,57.844,17.766,57.844,14.439z M87.992,92.825
							c-3.331,0-6.029-2.704-6.029-6.029c0-3.327,2.698-6.031,6.029-6.031c3.324,0,6.028,2.704,6.028,6.031
							C94.021,90.121,91.316,92.825,87.992,92.825z"/>
					</g>
				</g>
			</g>
			<g>
				<path fill="#342E8A" d="M114.395,43.479v14.747c0,1.904-0.502,3.531-1.506,4.881c-1.004,1.351-2.354,2.362-4.05,3.037
					c-1.697,0.676-3.394,1.153-5.089,1.429c-1.697,0.277-3.497,0.415-5.4,0.415c-1.801,0-3.488-0.112-5.063-0.338l-1.575-1.271
					l-2.527-3.012l-5.046-5.141l-5.192-5.586l2.597-8.296l2.898-7.166l1.938-1.281c0,0,2.415-1.253,3.973-1.687
					s2.942-0.702,4.154-0.806c1.212-0.104,2.494-0.155,3.843-0.155c1.384,0,2.69,0.051,3.921,0.155
					c1.228,0.104,2.62,0.372,4.18,0.806c1.558,0.434,2.89,0.994,3.998,1.687c1.106,0.694,2.041,1.688,2.803,2.985
					C114.013,40.181,114.395,41.713,114.395,43.479z M106.293,58.226v-14.8c0-1.627-0.667-2.77-1.999-3.427
					c-1.333-0.656-3.299-0.986-5.895-0.986c-2.631,0-4.604,0.32-5.92,0.961c-1.315,0.641-1.972,1.791-1.972,3.452v14.8
					c0,0.866,0.225,1.584,0.674,2.156c0.45,0.571,1.1,0.977,1.947,1.219c0.848,0.243,1.661,0.407,2.44,0.492
					c0.779,0.089,1.739,0.13,2.883,0.13c1.143,0,2.103-0.043,2.882-0.13c0.777-0.086,1.583-0.249,2.414-0.492
					c0.831-0.242,1.462-0.647,1.895-1.219C106.075,59.81,106.293,59.092,106.293,58.226z"/>
				<path fill="#342E8A" d="M150.951,67.469h-9.398l-7.686-11.944l-7.736,11.944h-9.347l12.41-17.188l-11.891-16.512h9.347
					l7.218,11.216l7.166-11.216h9.346L138.49,50.28L150.951,67.469z"/>
				<path fill="#342E8A" d="M184.443,33.768l-12.308,20.097v13.604h-8.1V53.968l-12.204-20.2h9.19l7.114,13.189l7.063-13.189
					H184.443z"/>
				<path fill="#342E8A" d="M216.481,65.808c-1.731,0.622-3.938,1.143-6.621,1.557c-2.683,0.416-5.148,0.623-7.398,0.623
					c-1.869,0-3.557-0.077-5.064-0.232c-1.504-0.156-3.01-0.45-4.517-0.885c-1.506-0.431-2.771-0.993-3.791-1.686
					c-1.022-0.692-1.844-1.626-2.466-2.805c-0.624-1.176-0.936-2.561-0.936-4.152V44.205c0-1.766,0.364-3.323,1.091-4.674
					c0.727-1.35,1.643-2.405,2.752-3.167c1.106-0.762,2.44-1.393,3.997-1.896c1.559-0.502,3.055-0.831,4.493-0.986
					c1.435-0.156,2.949-0.233,4.544-0.233c4.776,0,9.346,0.363,13.708,1.09v6.127c-4.121-0.969-8.69-1.453-13.708-1.453
					c-5.853,0-8.776,1.695-8.776,5.088v13.555c0,1.73,0.821,2.926,2.466,3.581c1.645,0.659,3.989,0.988,7.037,0.988
					c1.695,0,3.514-0.261,5.451-0.778v-7.84h-5.504v-5.299h13.242V65.808z"/>
				<path fill="#342E8A" d="M249.245,67.469h-26.223V33.768h25.703v5.764h-17.603v7.737h15.889v5.766h-15.889v8.671h18.122V67.469z"
					/>
				<path fill="#342E8A" d="M286.425,67.469h-8.205l-16.305-23.366v23.366h-7.218V33.768h8.203l16.305,23.005V33.768h7.22V67.469z"
					/>
			</g>
		</g>
	</g>
	<text transform="matrix(1 0 0 1 85.0493 23.1182)" fill="#3FA9F5" font-family="'Play'" font-size="12">Powered by</text>
</g>
</svg>
